<svg width="443" height="480" viewBox="0 0 443 480" xmlns="http://www.w3.org/2000/svg" lang="en" xml:lang="en"><rect x="2" y="2" stroke-width="4" rx="6" width="439" height="476" stroke="rgba(56,139,253,0.4)" fill="#0d1117"/><g font-weight="600" font-size="110pt" font-family="Verdana,Geneva,DejaVu Sans,sans-serif" text-rendering="geometricPrecision"><text x="415" y="339" lengthAdjust="spacingAndGlyphs" textLength="3226" transform="scale(0.109)" fill="#58a6ff">Talk is cheap.Show you my trash code.</text><g transform="translate(0, 60)" fill="#c9d1d9"><g transform="translate(15, 0)"><g transform="scale(0.095)"><text x="0" y="132" textLength="1020" lengthAdjust="spacingAndGlyphs">Repositories</text><text x="2326" y="132" textLength="832" lengthAdjust="spacingAndGlyphs">Non-Forks</text><text x="3484" y="132" textLength="206" lengthAdjust="spacingAndGlyphs">All</text></g></g><g transform="translate(15, 21)"><path fill="#1f6feb" fill-rule="evenodd" d="M2 2.5A2.5 2.5 0 014.5 0h8.75a.75.75 0 01.75.75v12.5a.75.75 0 01-.75.75h-2.5a.75.75 0 110-1.5h1.75v-2h-8a1 1 0 00-.714 1.7.75.75 0 01-1.072 1.05A2.495 2.495 0 012 11.5v-9zm10.5-1V9h-8c-.356 0-.694.074-1 .208V2.5a1 1 0 011-1h8zM5 12.25v3.25a.25.25 0 00.4.2l1.45-1.087a.25.25 0 01.3 0L8.6 15.7a.25.25 0 00.4-.2v-3.25a.25.25 0 00-.25-.25h-3.5a.25.25 0 00-.25.25z"/><g transform="scale(0.095)"><text lengthAdjust="spacingAndGlyphs" textLength="1312" x="263" y="132">My Repositories</text><text lengthAdjust="spacingAndGlyphs" textLength="210" x="2326" y="132">23</text><text lengthAdjust="spacingAndGlyphs" textLength="210" x="3484" y="132">25</text></g></g><g transform="translate(15, 42)"><path fill="#1f6feb" fill-rule="evenodd" d="M1.679 7.932c.412-.621 1.242-1.75 2.366-2.717C5.175 4.242 6.527 3.5 8 3.5c1.473 0 2.824.742 3.955 1.715 1.124.967 1.954 2.096 2.366 2.717a.119.119 0 010 .136c-.412.621-1.242 1.75-2.366 2.717C10.825 11.758 9.473 12.5 8 12.5c-1.473 0-2.824-.742-3.955-1.715C2.92 9.818 2.09 8.69 1.679 8.068a.119.119 0 010-.136zM8 2c-1.981 0-3.67.992-4.933 2.078C1.797 5.169.88 6.423.43 7.1a1.619 1.619 0 000 1.798c.45.678 1.367 1.932 2.637 3.024C4.329 13.008 6.019 14 8 14c1.981 0 3.67-.992 4.933-2.078 1.27-1.091 2.187-2.345 2.637-3.023a1.619 1.619 0 000-1.798c-.45-.678-1.367-1.932-2.637-3.023C11.671 2.992 9.981 2 8 2zm0 8a2 2 0 100-4 2 2 0 000 4z"/><g transform="scale(0.095)"><text lengthAdjust="spacingAndGlyphs" textLength="993" x="263" y="132">Watched By</text><text lengthAdjust="spacingAndGlyphs" textLength="210" x="2326" y="132">15</text><text lengthAdjust="spacingAndGlyphs" textLength="210" x="3484" y="132">15</text></g></g><g transform="translate(15, 63)"><path fill="#1f6feb" fill-rule="evenodd" d="M6 .75A.75.75 0 016.75 0h2.5a.75.75 0 010 1.5h-2.5A.75.75 0 016 .75zm5 0a.75.75 0 01.75-.75h1.5a.75.75 0 01.75.75v1.5a.75.75 0 01-1.5 0V1.5h-.75A.75.75 0 0111 .75zM4.992.662a.75.75 0 01-.636.848c-.436.063-.783.41-.846.846a.75.75 0 01-1.485-.212A2.501 2.501 0 014.144.025a.75.75 0 01.848.637zM2.75 4a.75.75 0 01.75.75v1.5a.75.75 0 01-1.5 0v-1.5A.75.75 0 012.75 4zm10.5 0a.75.75 0 01.75.75v1.5a.75.75 0 01-1.5 0v-1.5a.75.75 0 01.75-.75zM2.75 8a.75.75 0 01.75.75v.268A1.72 1.72 0 013.75 9h.5a.75.75 0 010 1.5h-.5a.25.25 0 00-.25.25v.75c0 .28.114.532.3.714a.75.75 0 01-1.05 1.072A2.495 2.495 0 012 11.5V8.75A.75.75 0 012.75 8zm10.5 0a.75.75 0 01.75.75v4.5a.75.75 0 01-.75.75h-2.5a.75.75 0 010-1.5h1.75v-2h-.75a.75.75 0 010-1.5h.75v-.25a.75.75 0 01.75-.75zM6 9.75A.75.75 0 016.75 9h2.5a.75.75 0 010 1.5h-2.5A.75.75 0 016 9.75zm-1 2.5v3.25a.25.25 0 00.4.2l1.45-1.087a.25.25 0 01.3 0L8.6 15.7a.25.25 0 00.4-.2v-3.25a.25.25 0 00-.25-.25h-3.5a.25.25 0 00-.25.25z"/><g transform="scale(0.095)"><text lengthAdjust="spacingAndGlyphs" textLength="868" x="263" y="132">Templates</text><text lengthAdjust="spacingAndGlyphs" textLength="105" x="2326" y="132">0</text><text lengthAdjust="spacingAndGlyphs" textLength="105" x="3484" y="132">1</text></g></g></g><g transform="translate(0, 165)" fill="#c9d1d9"><g transform="translate(15, 0)"><g transform="scale(0.095)"><text x="0" y="132" textLength="1112" lengthAdjust="spacingAndGlyphs">Contributions</text><text x="2326" y="132" textLength="774" lengthAdjust="spacingAndGlyphs">Past Year</text><text x="3484" y="132" textLength="414" lengthAdjust="spacingAndGlyphs">Total</text></g></g><g transform="translate(15, 21)"><path fill="#1f6feb" fill-rule="evenodd" d="M10.5 7.75a2.5 2.5 0 11-5 0 2.5 2.5 0 015 0zm1.43.75a4.002 4.002 0 01-7.86 0H.75a.75.75 0 110-1.5h3.32a4.001 4.001 0 017.86 0h3.32a.75.75 0 110 1.5h-3.32z"/><g transform="scale(0.095)"><text lengthAdjust="spacingAndGlyphs" textLength="734" x="263" y="132">Commits</text><text lengthAdjust="spacingAndGlyphs" textLength="210" x="2326" y="132">58</text><text lengthAdjust="spacingAndGlyphs" textLength="210" x="3484" y="132">68</text></g></g><g transform="translate(15, 42)"><path fill="#1f6feb" fill-rule="evenodd" d="M4 4v2h-.25A1.75 1.75 0 002 7.75v5.5c0 .966.784 1.75 1.75 1.75h8.5A1.75 1.75 0 0014 13.25v-5.5A1.75 1.75 0 0012.25 6H12V4a4 4 0 10-8 0zm6.5 2V4a2.5 2.5 0 00-5 0v2h5zM12 7.5h.25a.25.25 0 01.25.25v5.5a.25.25 0 01-.25.25h-8.5a.25.25 0 01-.25-.25v-5.5a.25.25 0 01.25-.25H12z"/><g transform="scale(0.095)"><text lengthAdjust="spacingAndGlyphs" textLength="1742" x="263" y="132">Private Contributions</text><text lengthAdjust="spacingAndGlyphs" textLength="315" x="2326" y="132">152</text><text lengthAdjust="spacingAndGlyphs" textLength="315" x="3484" y="132">152</text></g></g></g><g transform="translate(0, 249)" fill="#c9d1d9"><g transform="translate(15, 0)"><g transform="scale(0.095)"><text x="0" y="132" textLength="3652" lengthAdjust="spacingAndGlyphs">Language Distribution in Public Repositories</text></g></g><g transform="translate(236, 21)"><circle cx="92" cy="92" r="92" fill="#ffffff"/></g><g transform="translate(237, 22)"><g><path fill-rule="evenodd" fill="#3178c6" d="M 0.0,91.00000000000001 A 91 91 0 1 1 155.03123521162001 155.66065973429437 L 91,91 Z"/><path fill-rule="evenodd" fill="#3572A5" d="M 155.03123521162001,155.66065973429437 A 91 91 0 0 1 59.35793399858582 176.32162480381012 L 91,91 Z"/><path fill-rule="evenodd" fill="#f1e05a" d="M 59.35793399858582,176.32162480381012 A 91 91 0 0 1 24.786674211510032 153.42431808219686 L 91,91 Z"/><path fill-rule="evenodd" fill="#663399" d="M 24.786674211510032,153.42431808219686 A 91 91 0 0 1 11.545453419283163 135.36186456465393 L 91,91 Z"/><path fill-rule="evenodd" fill="#b07219" d="M 11.545453419283163,135.36186456465393 A 91 91 0 0 1 3.158229477007623 114.76601252599912 L 91,91 Z"/><path fill-rule="evenodd" fill="#e34c26" d="M 3.158229477007623,114.76601252599912 A 91 91 0 0 1 0.21151238582062604 97.20084806538584 L 91,91 Z"/><path fill-rule="evenodd" fill="#959da5" d="M 0.21151238582062604,97.20084806538584 A 91 91 0 0 1 0.0 91.00000000000003 L 91,91 Z"/><animateTransform attributeName="transform" attributeType="XML" type="rotate" from="0 91 91" to="360 91 91" dur="10s" repeatCount="indefinite"/></g></g><g transform="translate(15, 21)"><rect x="0.5" y="0.5" rx="2" width="15" height="15" fill="#3178c6" stroke-width="1" stroke="#ffffff"/><text transform="scale(0.095)" x="263" y="132" textLength="1568" lengthAdjust="spacingAndGlyphs">TypeScript 62.58%</text></g><g transform="translate(15, 42)"><rect x="0.5" y="0.5" rx="2" width="15" height="15" fill="#3572A5" stroke-width="1" stroke="#ffffff"/><text transform="scale(0.095)" x="263" y="132" textLength="1254" lengthAdjust="spacingAndGlyphs">Python 18.07%</text></g><g transform="translate(15, 63)"><rect x="0.5" y="0.5" rx="2" width="15" height="15" fill="#f1e05a" stroke-width="1" stroke="#ffffff"/><text transform="scale(0.095)" x="263" y="132" textLength="1412" lengthAdjust="spacingAndGlyphs">JavaScript 7.32%</text></g><g transform="translate(15, 84)"><rect x="0.5" y="0.5" rx="2" width="15" height="15" fill="#663399" stroke-width="1" stroke="#ffffff"/><text transform="scale(0.095)" x="263" y="132" textLength="903" lengthAdjust="spacingAndGlyphs">CSS 3.93%</text></g><g transform="translate(15, 105)"><rect x="0.5" y="0.5" rx="2" width="15" height="15" fill="#b07219" stroke-width="1" stroke="#ffffff"/><text transform="scale(0.095)" x="263" y="132" textLength="933" lengthAdjust="spacingAndGlyphs">Java 3.90%</text></g><g transform="translate(15, 126)"><rect x="0.5" y="0.5" rx="2" width="15" height="15" fill="#e34c26" stroke-width="1" stroke="#ffffff"/><text transform="scale(0.095)" x="263" y="132" textLength="1036" lengthAdjust="spacingAndGlyphs">HTML 3.12%</text></g><g transform="translate(15, 147)"><rect x="0.5" y="0.5" rx="2" width="15" height="15" fill="#959da5" stroke-width="1" stroke="#ffffff"/><text transform="scale(0.095)" x="263" y="132" textLength="1047" lengthAdjust="spacingAndGlyphs">Other 1.09%</text></g></g></g></svg>